<?xml version="1.0" encoding="UTF-8"?>
<svg version="1.1" xmlns="http://www.w3.org/2000/svg" width="1241" height="422">
<path d="M0 0 C0.495 0.99 0.495 0.99 1 2 C-0.09957031 2.21914062 -1.19914062 2.43828125 -2.33203125 2.6640625 C-16.60849451 5.65915867 -26.53409204 10.57107404 -37 21 C-37.56460938 21.54140625 -38.12921875 22.0828125 -38.7109375 22.640625 C-49.52145772 33.9659319 -53.53025919 50.25112206 -53.42211914 65.47827148 C-52.85357063 82.07802385 -46.52315579 96.9716131 -35 109 C-22.38763602 120.34569901 -7.39327273 125.60059519 9.484375 124.84375 C17.18153783 123.88620821 24.0669681 121.43592905 31 118 C32.38251953 117.49339844 32.38251953 117.49339844 33.79296875 116.9765625 C36.45811087 114.58972725 36.40553555 113.79989439 36.70703125 110.33203125 C36.77129789 108.49297421 36.80039861 106.65263982 36.8125 104.8125 C36.874375 101.574375 36.93625 98.33625 37 95 C26.77 95 16.54 95 6 95 C6 84.44 6 73.88 6 63 C29.1 63 52.2 63 76 63 C76.036826 73.31128035 76.07079997 83.61920812 76.02774048 93.92980957 C76.01031035 98.2450313 75.99857637 102.55975962 76.01464844 106.875 C76.02696421 110.5665379 76.00520088 114.2562898 75.95626831 117.94750977 C75.93787428 119.95906899 75.95405262 121.9708495 75.97094727 123.98242188 C75.78564218 133.99021556 75.78564218 133.99021556 71.8203125 138.09375 C70.5782643 139.10243028 69.30533685 140.07468095 68 141 C66.99839844 141.7940625 65.99679687 142.588125 64.96484375 143.40625 C40.55532131 160.28819068 12.76006402 167.91757221 -16.8125 162.8125 C-35.47730789 159.21927495 -51.9518891 151.84337245 -66 139 C-66.85207031 138.24074219 -67.70414063 137.48148438 -68.58203125 136.69921875 C-83.23267499 122.94876818 -94.13627784 102.05196939 -95.16113281 81.81884766 C-95.52638743 52.20349326 -92.95076353 26.91536726 -72.2109375 4.19140625 C-67.89175128 -0.08962462 -64.71238323 -2.43923078 -58.6875 -3.6875 C-57.61886719 -3.91824219 -56.55023438 -4.14898437 -55.44921875 -4.38671875 C-37.7346045 -7.53642933 -16.77805079 -7.41807338 0 0 Z " fill="#272729" transform="translate(200,106)"/>
<path d="M0 0 C3.96 0 7.92 0 12 0 C13.8201313 3.6402626 14.25935228 4.6685212 14.1875 8.4375 C14.18105469 9.17871094 14.17460938 9.91992188 14.16796875 10.68359375 C13.98649275 13.18627438 13.53976458 15.55162785 13 18 C13.71285156 17.19175781 14.42570313 16.38351563 15.16015625 15.55078125 C28.53859615 0.55616967 28.53859615 0.55616967 36.33984375 -0.23828125 C43.39871677 -0.43996334 43.39871677 -0.43996334 46.5625 1.875 C48.81167514 5.19986761 49.11468077 7.0110703 49.0625 11 C49.05347656 11.886875 49.04445313 12.77375 49.03515625 13.6875 C49.02355469 14.450625 49.01195312 15.21375 49 16 C49 16.66 49 17.32 49 18 C49.42410156 17.41992188 49.84820313 16.83984375 50.28515625 16.2421875 C55.76570415 8.94282041 61.02988147 2.78382989 70 0 C74.69576538 -0.65578792 77.88311629 -0.67478391 82 1.8125 C85.52494711 5.6679109 85.26486206 9.44175821 85.21826172 14.40673828 C84.73795033 22.31414659 83.32032886 30.1234977 82.0625 37.9375 C81.78117448 39.73230814 81.50056996 41.52722945 81.22070312 43.32226562 C79.11161586 56.73574139 79.11161586 56.73574139 78 61 C76.37509046 61.02698189 74.75005367 61.04638757 73.125 61.0625 C72.22007813 61.07410156 71.31515625 61.08570313 70.3828125 61.09765625 C68 61 68 61 66 60 C64.75608126 53.14813819 65.24371765 47.15006659 66.3125 40.3125 C66.45276611 39.35585449 66.59303223 38.39920898 66.73754883 37.41357422 C67.01868985 35.50078534 67.30431187 33.58864895 67.59472656 31.67724609 C68.15187693 27.99669733 68.6689552 24.31117718 69.1875 20.625 C69.45756858 18.74988969 69.72805241 16.87483871 70 15 C63.72391299 15.8346437 60.8593631 19.20417379 57 24 C50.57981296 33.767856 46.39137452 43.24410469 44.625 54.8359375 C43.89138507 57.3760792 43.0668227 58.38032644 41 60 C37.11651516 61.29449495 34.09302664 61.13203312 30 61 C29 60 29 60 28.9453125 57.421875 C29.64616831 43.10003886 32.40972623 29.07738867 35 15 C28.46249756 16.19313094 25.12895493 19.13864818 21.171875 24.45703125 C14.94404023 33.92063235 10.83860377 43.09273806 8.7734375 54.25 C7.96296235 57.13168942 7.37454152 58.23936433 5 60 C1.50615721 61.16461426 -1.33655389 61.13568319 -5 61 C-6 60 -6 60 -6.13487244 57.87498474 C-6.12000149 51.25668422 -5.70438368 44.79434504 -4.94140625 38.22265625 C-4.8327977 37.24888535 -4.72418915 36.27511444 -4.61228943 35.27183533 C-4.38395879 33.23550633 -4.15273409 31.19949988 -3.91870117 29.16381836 C-3.5606962 26.04679495 -3.21225159 22.92881083 -2.86523438 19.81054688 C-2.64117898 17.82285414 -2.4165888 15.8352216 -2.19140625 13.84765625 C-2.08719864 12.91848892 -1.98299103 11.98932159 -1.87562561 11.03199768 C-1.77559738 10.16687057 -1.67556915 9.30174347 -1.57250977 8.41040039 C-1.48590591 7.65304092 -1.39930206 6.89568146 -1.31007385 6.1153717 C-1 4 -1 4 0 0 Z M11 20 C12 22 12 22 12 22 Z " fill="#CA5528" transform="translate(964,173)"/>
<path d="M0 0 C2.20296227 10.61427276 -5.01420896 23.98314387 -10 33 C-13.6398997 31.46389554 -15.94555404 29.2521892 -18.75 26.5 C-46.33095977 1.08297192 -81.80869065 -5.10974603 -118 -4 C-122.67909671 -3.80126042 -127.3416347 -3.49035424 -132 -3 C-97.02318074 -33.43525552 -34.74606129 -26.55123551 0 0 Z " fill="#BD5426" transform="translate(270,98)"/>
<path d="M0 0 C1.95766281 -0.08082094 3.91626728 -0.13910778 5.875 -0.1875 C7.51082031 -0.23970703 7.51082031 -0.23970703 9.1796875 -0.29296875 C10.11039063 -0.19628906 11.04109375 -0.09960938 12 0 C17.0723484 7.60852259 13.46381966 19.81146624 12 28.3125 C10.2861836 38.1018016 10.2861836 38.1018016 10 48 C15.70026806 46.61811683 18.7945034 42.63453189 22 38 C27.01969656 29.19451147 31.01762134 21.04014049 31.5625 10.8125 C31.62727539 9.68811523 31.62727539 9.68811523 31.69335938 8.54101562 C31.79922685 6.69421625 31.9000976 4.84713166 32 3 C39.36607143 -0.40178571 39.36607143 -0.40178571 43.4375 -0.1875 C45.2009375 -0.0946875 45.2009375 -0.0946875 47 0 C49.17337564 3.48481441 49.11752678 5.88529872 48.73828125 9.92578125 C48.62822754 11.17053223 48.51817383 12.4152832 48.40478516 13.69775391 C48.30668549 14.72766449 48.30668549 14.72766449 48.206604 15.77838135 C47.98595898 18.15098343 47.7903274 20.52475164 47.59912109 22.89990234 C47.23465411 27.40091369 46.84113901 31.89878241 46.43530273 36.39624023 C46.26966901 38.26194509 46.10986698 40.12817657 45.95581055 41.99487305 C43.78834737 68.17151121 43.78834737 68.17151121 35.1953125 77.2109375 C26.21828147 84.52673859 16.31714933 86.85591886 5 86 C0.20405946 85.05993192 -2.32188751 83.83459999 -5.4375 80 C-7.82881169 75.40868155 -8.09690354 72.13588754 -8 67 C-3.68095956 66.63620986 -1.4763742 67.59715744 2.125 69.9375 C6.37083582 72.66696588 9.40823585 74.14197255 14.5 74.125 C15.2734375 74.12757813 16.046875 74.13015625 16.84375 74.1328125 C19.18447017 74.08145813 19.18447017 74.08145813 22 73 C23.11532142 70.74308042 23.11532142 70.74308042 24 68 C24.39058594 67.06285156 24.78117187 66.12570313 25.18359375 65.16015625 C28.41496429 57.17736237 30.43985271 49.46031093 32 41 C31.57589844 41.56847656 31.15179687 42.13695312 30.71484375 42.72265625 C17.76015296 59.77729314 17.76015296 59.77729314 6.7890625 61.30859375 C3.12477356 61.42437983 -0.04743489 61.27120393 -3 59 C-9.34907234 49.18610733 -3.95476113 29.92439102 -2.5 19.0625 C-2.25824269 17.20388924 -2.01735175 15.34516558 -1.77734375 13.48632812 C-1.19484897 8.98952474 -0.60074456 4.49440016 0 0 Z " fill="#CA5528" transform="translate(1059,173)"/>
<path d="M0 0 C1.45921085 4.85618461 2.58478134 9.68698677 3.48046875 14.6796875 C3.75594368 16.16973141 4.03217821 17.65963503 4.30908203 19.14941406 C4.45202698 19.92128052 4.59497192 20.69314697 4.74224854 21.48840332 C6.98548128 33.51237683 9.37198872 45.45229178 12.625 57.25 C13.02174927 58.72702393 13.02174927 58.72702393 13.42651367 60.23388672 C14.9467365 65.51964164 16.82899149 69.84339324 19.98828125 74.359375 C21 76 21 76 21.375 78.75 C19.01477602 82.6121847 15.24010109 83.81496367 11 85 C7.1875 85.1875 7.1875 85.1875 4 84 C-0.68617135 78.24270377 -4 68.40042164 -4 61 C-13.9 61.33 -23.8 61.66 -34 62 C-35.64095829 66.10239571 -36.18955974 68.26412086 -36.5625 72.4375 C-37.1298902 75.88369784 -37.52568897 77.52843594 -40.0234375 80.01171875 C-45.7723823 83.85365111 -50.04383771 85.13124835 -57 85 C-57.4053871 79.84798198 -56.07830806 76.29044413 -53.79052734 71.78881836 C-53.44903656 71.09371658 -53.10754578 70.39861481 -52.75570679 69.68244934 C-51.62786488 67.39536294 -50.48268695 65.11750159 -49.3359375 62.83984375 C-48.54253847 61.24645998 -47.74979314 59.65275057 -46.95767212 58.05873108 C-45.29592932 54.72190082 -43.6253971 51.38965778 -41.94873047 48.06030273 C-39.80591493 43.8032222 -37.6867413 39.53487465 -35.57423973 35.26268673 C-33.94218952 31.96932688 -32.29696039 28.68268775 -30.6478157 25.39785957 C-29.86139701 23.82716937 -29.07921064 22.25435242 -28.30143356 20.67936516 C-27.2096326 18.47314077 -26.10016927 16.27670014 -24.98583984 14.08178711 C-24.51325745 13.11301132 -24.51325745 13.11301132 -24.03112793 12.12466431 C-21.02850906 6.29595689 -16.8392954 2.16919308 -10.5 0.125 C-6.70129537 -1.02553829 -3.88198397 -1.09491855 0 0 Z M-14 18 C-16.14122162 22.37583695 -18.27733015 26.75411745 -20.40869141 31.13476562 C-21.13482102 32.6253619 -21.86235526 34.11527477 -22.59130859 35.60449219 C-23.63747268 37.74236764 -24.67859832 39.88263167 -25.71875 42.0234375 C-26.04685669 42.69120209 -26.37496338 43.35896667 -26.7130127 44.04696655 C-28.43046236 47.37027388 -28.43046236 47.37027388 -29 51 C-21.41 51 -13.82 51 -6 51 C-6.78774398 46.81172762 -7.58004638 42.62440459 -8.375 38.4375 C-8.59671875 37.25607422 -8.8184375 36.07464844 -9.046875 34.85742188 C-10.13417273 29.1491088 -11.25715647 23.54615161 -13 18 C-13.33 18 -13.66 18 -14 18 Z " fill="#CA5528" transform="translate(721,149)"/>
<path d="M0 0 C3.96 0 7.92 0 12 0 C14.83149076 2.83149076 15.85568111 4.01771096 16.1413269 7.94119263 C16.13832026 13.43942586 15.61931982 18.69170912 14.7578125 24.1171875 C14.49403843 25.86453109 14.23062438 27.61192905 13.9675293 29.359375 C13.82954926 30.26107422 13.69156921 31.16277344 13.54940796 32.09179688 C11.01592175 48.70601579 8.99646575 65.16254447 8.2019043 81.9609375 C8 84 8 84 7 86 C5.5629191 86.05422947 4.12524538 86.09289723 2.6875 86.125 C1.48673828 86.15980469 1.48673828 86.15980469 0.26171875 86.1953125 C-2 86 -2 86 -5 84 C-6.02951307 80.9114608 -6.1019536 78.79331179 -6.0625 75.5625 C-6.05347656 74.61503906 -6.04445313 73.66757813 -6.03515625 72.69140625 C-6.02355469 71.80324219 -6.01195312 70.91507812 -6 70 C-6 68.68 -6 67.36 -6 66 C-6.49628906 66.72445312 -6.99257813 67.44890625 -7.50390625 68.1953125 C-12.74482896 75.65393116 -18.08787192 82.91503259 -27 86 C-32.16463928 86.61792582 -36.43901605 86.86013401 -41.0625 84.3125 C-46.40456805 77.93648329 -46.65984086 69.01235335 -46 61 C-44.15469125 49.16831452 -41.21727368 39.10053347 -32 31 C-23.74659918 25.23610938 -15.94555279 23.74777544 -6 25 C-4.02 25.66 -2.04 26.32 0 27 C0 18.09 0 9.18 0 0 Z M-26 39 C-29.8172684 45.98124589 -31.18027551 52.01223649 -31.1875 59.9375 C-31.19974609 60.64068359 -31.21199219 61.34386719 -31.22460938 62.06835938 C-31.23606863 66.14403561 -30.95373825 69.38729805 -29 73 C-28.34 73.33 -27.68 73.66 -27 74 C-16.31033445 68.12068395 -7.55823915 54.48000315 -4 43 C-3.93234885 40.811143 -3.93234885 40.811143 -5 39 C-12.04644772 34.70047258 -19.88883193 32.40637129 -26 39 Z M-4 61 C-3 63 -3 63 -3 63 Z " fill="#CA5528" transform="translate(890,148)"/>
<path d="M0 0 C3.96 0 7.92 0 12 0 C15.64222902 7.28445804 14.02370048 14.35691695 12 22 C12.42410156 21.28714844 12.84820312 20.57429688 13.28515625 19.83984375 C18.48127997 11.35474502 24.00418949 3.00949134 34 0 C38.57291077 -0.61531521 42.53595572 -0.46724818 46.9375 0.9375 C52.32109235 6.32109235 52.3374072 13.57842549 52.4375 20.75 C52.34385791 33.05128005 49.32218252 43.66497579 41 53 C34.27310667 59.25848296 28.01721475 61.34868855 18.8125 61.1875 C18.10158203 61.18685547 17.39066406 61.18621094 16.65820312 61.18554688 C13.51430692 61.15892875 11.00190612 61.00063537 8 60 C7.67 68.58 7.34 77.16 7 86 C3.37 86 -0.26 86 -4 86 C-7.82129346 82.17870654 -8.14557569 79.93483674 -8.15600586 74.75195312 C-8.09066547 67.43766861 -7.32671456 60.22976053 -6.50390625 52.96875 C-6.34887092 51.56064134 -6.19433442 50.15247769 -6.04026794 48.7442627 C-5.7189116 45.81928319 -5.39330353 42.89482192 -5.06420898 39.97070312 C-4.64309183 36.22798603 -4.23023561 32.48441559 -3.82019138 28.74047089 C-3.5025106 25.84401889 -3.18185145 22.94790324 -2.86015129 20.05189514 C-2.70684924 18.67089069 -2.55415895 17.28981819 -2.40210152 15.90867615 C-2.18959682 13.98502688 -1.97294216 12.06183743 -1.75610352 10.13867188 C-1.57290306 8.50085754 -1.57290306 8.50085754 -1.38600159 6.82995605 C-1 4 -1 4 0 0 Z M30.2109375 13.90625 C21.71677853 21.27990289 13.9965041 32.41753277 10 43 C10 44.32 10 45.64 10 47 C16.12242819 49.81029491 21.2195699 52.0343029 28 51 C33.83581908 46.88840019 36.32101221 40.22519202 37.75 33.4375 C38.26728125 26.32488287 37.95176439 20.83117538 36 14 C33.62351211 13.12059479 32.52234482 12.73540612 30.2109375 13.90625 Z " fill="#272728" transform="translate(395,173)"/>
<path d="M0 0 C1.76949095 -0.10815225 3.54087487 -0.18566083 5.3125 -0.25 C6.29863281 -0.29640625 7.28476562 -0.3428125 8.30078125 -0.390625 C11 0 11 0 12.82397461 1.83398438 C19.49122948 14.11380277 10.94085416 35.63172684 8 48 C8.556875 47.14277344 9.11375 46.28554687 9.6875 45.40234375 C15.53719177 36.56711393 21.33752779 28.18003557 32 25 C36.73187559 24.34620026 39.88460136 24.30287585 44 26.875 C47.67149187 30.77596011 47.26234243 33.96620803 47.21826172 39.14453125 C46.76410498 47.16695098 45.34430246 55.0757323 44.0625 63 C43.78110255 64.79023925 43.50049788 66.58060331 43.22070312 68.37109375 C41.11878968 81.70580169 41.11878968 81.70580169 40 86 C38.37536158 86.05395478 36.75021459 86.09277195 35.125 86.125 C34.22007812 86.14820313 33.31515625 86.17140625 32.3828125 86.1953125 C30 86 30 86 28 84 C27.76571236 81.47151907 27.66937838 79.0924482 27.6875 76.5625 C27.68878906 75.81621338 27.69007813 75.06992676 27.69140625 74.30102539 C27.8021693 67.62132116 28.71975053 61.15948229 29.93237305 54.59790039 C30.83542928 49.64100596 31.13734532 45.04171778 31 40 C22.866329 42.65880985 17.7137922 50.1551841 13.75 57.4375 C10.84585067 63.54897909 9.31023454 69.97539583 7.99902344 76.58959961 C7.10366144 80.61336963 6.68617924 82.46821109 3.34375 85.05859375 C-0.65136128 86.18338559 -3.85895589 86.06427046 -8 86 C-8.23509079 74.89289292 -7.58298147 64.14710192 -6.25 53.125 C-6.06983908 51.57854339 -5.89049335 50.03199161 -5.71191406 48.48535156 C-5.24650694 44.47326381 -4.77026309 40.46253972 -4.29150391 36.45202637 C-3.80217806 32.33599271 -3.32345249 28.21872678 -2.84375 24.1015625 C-1.90601978 16.06648761 -0.95680158 8.03282616 0 0 Z " fill="#272628" transform="translate(458,148)"/>
<path d="M0 0 C4.18561615 0.98206204 6.52277972 0.47209872 10.5625 -1.125 C13.23046875 -0.69140625 13.23046875 -0.69140625 15.5625 -0.125 C15.18158203 1.3290625 15.18158203 1.3290625 14.79296875 2.8125 C9.90781629 21.70461717 7.47046513 40.47224211 5.5625 59.875 C3.77156809 59.95586147 1.97960372 60.01412702 0.1875 60.0625 C-1.30910156 60.11470703 -1.30910156 60.11470703 -2.8359375 60.16796875 C-3.69445312 60.07128906 -4.55296875 59.97460938 -5.4375 59.875 C-9.25834702 54.14372947 -7.57657961 46.42470777 -6.4375 39.875 C-7.16453125 40.94427734 -7.16453125 40.94427734 -7.90625 42.03515625 C-12.83963298 49.08420154 -18.16910497 56.56150589 -26.4375 59.875 C-31.76880776 60.62980512 -36.03763207 60.87490567 -40.5 57.6875 C-45.94051799 49.78997389 -46.30091877 40.74896704 -44.94140625 31.5 C-43.54340368 24.17035943 -41.73525955 18.00940892 -37.4375 11.875 C-36.77427734 10.92173828 -36.77427734 10.92173828 -36.09765625 9.94921875 C-27.21950341 -1.53581553 -13.48137913 -3.17088584 0 0 Z M-24.125 10.9375 C-29.66716378 17.97754588 -30.61698905 25.19112732 -30.625 33.875 C-30.63724609 34.57367188 -30.64949219 35.27234375 -30.66210938 35.9921875 C-30.67359957 40.05205736 -30.38037158 43.27557476 -28.4375 46.875 C-27.7775 47.205 -27.1175 47.535 -26.4375 47.875 C-14.99251259 39.57972302 -8.81950772 26.5807594 -3.4375 13.875 C-5.30646555 13.02821949 -7.18300181 12.19813789 -9.0625 11.375 C-10.10664062 10.9109375 -11.15078125 10.446875 -12.2265625 9.96875 C-16.97458047 8.35142028 -20.05482642 7.81387841 -24.125 10.9375 Z " fill="#CA5528" transform="translate(829.4375,174.125)"/>
<path d="M0 0 C4.18561615 0.98206204 6.52277972 0.47209872 10.5625 -1.125 C13.23046875 -0.69140625 13.23046875 -0.69140625 15.5625 -0.125 C15.18158203 1.3290625 15.18158203 1.3290625 14.79296875 2.8125 C9.90781629 21.70461717 7.47046513 40.47224211 5.5625 59.875 C3.77156809 59.95586147 1.97960372 60.01412702 0.1875 60.0625 C-1.30910156 60.11470703 -1.30910156 60.11470703 -2.8359375 60.16796875 C-3.69445312 60.07128906 -4.55296875 59.97460938 -5.4375 59.875 C-9.25834702 54.14372947 -7.57657961 46.42470777 -6.4375 39.875 C-7.16453125 40.94427734 -7.16453125 40.94427734 -7.90625 42.03515625 C-12.83963298 49.08420154 -18.16910497 56.56150589 -26.4375 59.875 C-31.76880776 60.62980512 -36.03763207 60.87490567 -40.5 57.6875 C-45.94051799 49.78997389 -46.30091877 40.74896704 -44.94140625 31.5 C-43.54340368 24.17035943 -41.73525955 18.00940892 -37.4375 11.875 C-36.77427734 10.92173828 -36.77427734 10.92173828 -36.09765625 9.94921875 C-27.21950341 -1.53581553 -13.48137913 -3.17088584 0 0 Z M-24.125 10.9375 C-29.66716378 17.97754588 -30.61698905 25.19112732 -30.625 33.875 C-30.63724609 34.57367188 -30.64949219 35.27234375 -30.66210938 35.9921875 C-30.67359957 40.05205736 -30.38037158 43.27557476 -28.4375 46.875 C-27.7775 47.205 -27.1175 47.535 -26.4375 47.875 C-14.99251259 39.57972302 -8.81950772 26.5807594 -3.4375 13.875 C-5.30646555 13.02821949 -7.18300181 12.19813789 -9.0625 11.375 C-10.10664062 10.9109375 -11.15078125 10.446875 -12.2265625 9.96875 C-16.97458047 8.35142028 -20.05482642 7.81387841 -24.125 10.9375 Z " fill="#272629" transform="translate(627.4375,174.125)"/>
<path d="M0 0 C4.18561615 0.98206204 6.52277972 0.47209872 10.5625 -1.125 C13.23046875 -0.69140625 13.23046875 -0.69140625 15.5625 -0.125 C15.18158203 1.3290625 15.18158203 1.3290625 14.79296875 2.8125 C9.90781629 21.70461717 7.47046513 40.47224211 5.5625 59.875 C3.77156809 59.95586147 1.97960372 60.01412702 0.1875 60.0625 C-1.30910156 60.11470703 -1.30910156 60.11470703 -2.8359375 60.16796875 C-3.69445312 60.07128906 -4.55296875 59.97460938 -5.4375 59.875 C-9.25834702 54.14372947 -7.57657961 46.42470777 -6.4375 39.875 C-7.16453125 40.94427734 -7.16453125 40.94427734 -7.90625 42.03515625 C-12.83963298 49.08420154 -18.16910497 56.56150589 -26.4375 59.875 C-31.76880776 60.62980512 -36.03763207 60.87490567 -40.5 57.6875 C-45.94051799 49.78997389 -46.30091877 40.74896704 -44.94140625 31.5 C-43.54340368 24.17035943 -41.73525955 18.00940892 -37.4375 11.875 C-36.77427734 10.92173828 -36.77427734 10.92173828 -36.09765625 9.94921875 C-27.21950341 -1.53581553 -13.48137913 -3.17088584 0 0 Z M-24.125 10.9375 C-29.66716378 17.97754588 -30.61698905 25.19112732 -30.625 33.875 C-30.63724609 34.57367188 -30.64949219 35.27234375 -30.66210938 35.9921875 C-30.67359957 40.05205736 -30.38037158 43.27557476 -28.4375 46.875 C-27.7775 47.205 -27.1175 47.535 -26.4375 47.875 C-14.99251259 39.57972302 -8.81950772 26.5807594 -3.4375 13.875 C-5.30646555 13.02821949 -7.18300181 12.19813789 -9.0625 11.375 C-10.10664063 10.9109375 -11.15078125 10.446875 -12.2265625 9.96875 C-16.97458047 8.35142028 -20.05482642 7.81387841 -24.125 10.9375 Z " fill="#272628" transform="translate(372.4375,174.125)"/>
<path d="M0 0 C3.53329725 3.21208841 5.09072897 5.76301559 5.75 10.5 C5.67672324 17.09490827 3.57322718 21.97323814 -1.00390625 26.68359375 C-8.61265156 32.836753 -19.38932136 37.5 -29.25 37.5 C-28.47969878 40.98809191 -28.47969878 40.98809191 -27.25 44.5 C-21.50163444 46.41612185 -15.05682931 46.5921812 -9.37890625 44.3828125 C-7.69692623 43.49808601 -6.03589218 42.57153531 -4.40625 41.59375 C-2.25 40.5 -2.25 40.5 1.75 40.5 C2.17335178 43.39290385 2.21549393 45.61078723 0.8359375 48.24609375 C-3.77258836 54.29646834 -10.71985738 58.62787722 -18.265625 59.81787109 C-25.9324406 60.52243725 -31.98272535 60.46235822 -38.25 55.5 C-43.50453262 49.9535489 -44.62503753 44.22055467 -44.5625 36.75 C-44.55686035 36.04407715 -44.5512207 35.3381543 -44.54541016 34.61083984 C-44.29630404 23.83021777 -40.66024368 14.45910898 -33.36328125 6.421875 C-24.74001092 -1.64232279 -11.24073942 -5.39267882 0 0 Z M-23.25 11.5 C-26.98299646 17.28930807 -28.8693331 22.64799575 -29.25 29.5 C-22.33313 28.04381684 -17.00337904 26.25337904 -11.875 21.125 C-10.00921996 18.11104763 -9.40045411 16.03567154 -9.25 12.5 C-10.07342532 10.18019054 -10.07342532 10.18019054 -11.25 8.5 C-16.23872421 8.20654563 -19.44634432 8.09672912 -23.25 11.5 Z " fill="#CA5527" transform="translate(951.25,174.5)"/>
<path d="M0 0 C1.02855103 -0.01522705 1.02855103 -0.01522705 2.07788086 -0.03076172 C6.40871503 0.04429973 9.42653349 0.5842754 12.75 3.4375 C13.30859375 5.59375 13.30859375 5.59375 13.1875 7.9375 C13.16558594 8.7109375 13.14367187 9.484375 13.12109375 10.28125 C12.75 12.4375 12.75 12.4375 10.75 15.4375 C6.98650747 15.06115075 4.1265749 14.63363276 0.75 12.875 C-2.97294365 11.0910895 -5.17086456 10.77000511 -9.25 11.4375 C-14.97455228 16.51153497 -16.9967802 22.65107272 -17.5 30.17578125 C-17.87220644 38.59886593 -17.87220644 38.59886593 -15.25 46.4375 C-9.52941732 48.66755766 -6.07303413 48.74473994 -0.25 46.4375 C0.636875 45.90125 1.52375 45.365 2.4375 44.8125 C4.75 43.4375 4.75 43.4375 8.75 43.4375 C9.18197701 46.3893429 9.24032784 48.58083527 7.73046875 51.21875 C3.09816564 57.0378415 -2.24323355 60.96532214 -9.73046875 61.84765625 C-16.12891495 62.00272923 -20.65810121 61.77832147 -26.25 58.4375 C-32.41669288 52.27080712 -33.34315918 47.05900813 -33.5625 38.6875 C-33.35711507 27.28259561 -30.35556076 17.24585912 -22.62109375 8.62109375 C-15.86323519 2.36497875 -9.17041033 0.0977013 0 0 Z " fill="#CA5528" transform="translate(774.25,172.5625)"/>
<path d="M0 0 C1.76949095 -0.10815225 3.54087487 -0.18566083 5.3125 -0.25 C6.29863281 -0.29640625 7.28476562 -0.3428125 8.30078125 -0.390625 C11 0 11 0 12.84375 1.65625 C14.26976513 4.54682122 14.30206939 6.54205698 14.1875 9.75 C14.16042969 10.73484375 14.13335937 11.7196875 14.10546875 12.734375 C14.07066406 13.48203125 14.03585937 14.2296875 14 15 C14.43570312 14.40832031 14.87140625 13.81664062 15.3203125 13.20703125 C19.25164505 7.99078265 23.03269761 2.98365119 29 0 C32.4375 -0.375 32.4375 -0.375 36 0 C38.0625 1.875 38.0625 1.875 39 5 C38.86090096 8.5442435 38.29357226 11.69223532 37 15 C33.85237047 17.42817135 32.14273692 17.0140397 28.1875 16.625 C27.135625 16.41875 26.08375 16.2125 25 16 C16.37945869 26.83943804 11.8336855 38.90729157 9.64379883 52.45336914 C8.91076744 56.29212681 8.39933034 57.72765562 5.11328125 59.96875 C1.55658066 61.14687918 -1.2762923 61.29205551 -5 61 C-6 60 -6 60 -6.13487244 57.87498474 C-6.12000149 51.25668422 -5.70438368 44.79434504 -4.94140625 38.22265625 C-4.8327977 37.24888535 -4.72418915 36.27511444 -4.61228943 35.27183533 C-4.38395879 33.23550633 -4.15273409 31.19949988 -3.91870117 29.16381836 C-3.5606962 26.04679495 -3.21225159 22.92881083 -2.86523438 19.81054688 C-2.64117898 17.82285414 -2.4165888 15.8352216 -2.19140625 13.84765625 C-2.08719864 12.91848892 -1.98299103 11.98932159 -1.87562561 11.03199768 C-1.77559738 10.16687057 -1.67556915 9.30174347 -1.57250977 8.41040039 C-1.48590591 7.65304092 -1.39930206 6.89568146 -1.31007385 6.1153717 C-1.00407904 4.02782787 -0.54814792 2.03610927 0 0 Z M12 17 C13 19 13 19 13 19 Z " fill="#272729" transform="translate(296,173)"/>
<path d="M0 0 C2.92387079 2.318932 3.04096859 4.24703813 3.65234375 7.93359375 C4.2190886 13.60958617 3.51532706 18.9964275 2.75 24.625 C2.54129272 26.2637207 2.54129272 26.2637207 2.32836914 27.93554688 C1.64719667 33.24999543 0.92491541 38.55866674 0.19921875 43.8671875 C-0.05558818 45.74466965 -0.30950544 47.62227277 -0.5625 49.5 C-0.68633057 50.4180542 -0.81016113 51.3361084 -0.93774414 52.28198242 C-2.39717807 63.48068599 -3.20643234 74.73760793 -4 86 C-5.95766281 86.08082094 -7.91626728 86.13910778 -9.875 86.1875 C-11.51082031 86.23970703 -11.51082031 86.23970703 -13.1796875 86.29296875 C-14.11039063 86.19628906 -15.04109375 86.09960938 -16 86 C-21.49838406 77.75242391 -17.57617341 62.02475811 -16.28991699 52.48648071 C-14.07766062 35.89758518 -13.49574724 19.73537318 -14 3 C-12.73741383 2.50466467 -11.47266068 2.01485076 -10.20703125 1.52734375 C-9.50296143 1.25398193 -8.7988916 0.98062012 -8.07348633 0.69897461 C-5.20634229 -0.26754292 -2.98703402 -0.48626135 0 0 Z " fill="#272729" transform="translate(578,148)"/>
<path d="M0 0 C2.92387079 2.318932 3.04096859 4.24703813 3.65234375 7.93359375 C4.2190886 13.60958617 3.51532706 18.9964275 2.75 24.625 C2.54129272 26.2637207 2.54129272 26.2637207 2.32836914 27.93554688 C1.64719667 33.24999543 0.92491541 38.55866674 0.19921875 43.8671875 C-0.05558818 45.74466965 -0.30950544 47.62227277 -0.5625 49.5 C-0.68633057 50.4180542 -0.81016113 51.3361084 -0.93774414 52.28198242 C-2.39717807 63.48068599 -3.20643234 74.73760793 -4 86 C-5.95766281 86.08082094 -7.91626728 86.13910778 -9.875 86.1875 C-11.51082031 86.23970703 -11.51082031 86.23970703 -13.1796875 86.29296875 C-14.11039063 86.19628906 -15.04109375 86.09960938 -16 86 C-21.49838406 77.75242391 -17.57617341 62.02475811 -16.28991699 52.48648071 C-14.07766062 35.89758518 -13.49574724 19.73537318 -14 3 C-12.73741383 2.50466467 -11.47266068 2.01485076 -10.20703125 1.52734375 C-9.50296143 1.25398193 -8.7988916 0.98062012 -8.07348633 0.69897461 C-5.20634229 -0.26754292 -2.98703402 -0.48626135 0 0 Z " fill="#272728" transform="translate(552,148)"/>
<path d="M0 0 C3.96 0 7.92 0 12 0 C16.55889693 9.11779385 12.16901249 25.78077866 10.91870117 35.48388672 C10.55782551 38.2863002 10.21048953 41.09015425 9.86523438 43.89453125 C9.64139182 45.68499187 9.41681054 47.47536032 9.19140625 49.265625 C9.08719864 50.09991028 8.98299103 50.93419556 8.87562561 51.79376221 C8.46178212 54.98859646 8.02143198 57.93570405 7 61 C3.37 61 -0.26 61 -4 61 C-6.00348461 55.99128847 -6.15455146 54.0533367 -5.75 48.859375 C-5.6977124 48.16624207 -5.6454248 47.47310913 -5.59155273 46.75897217 C-4.98056208 39.03458085 -4.14638815 31.33002786 -3.27050781 23.63183594 C-2.99555136 21.21082948 -2.72788059 18.78908937 -2.4609375 16.3671875 C-2.28687946 14.8124528 -2.11241599 13.25776341 -1.9375 11.703125 C-1.85830322 10.98650696 -1.77910645 10.26988892 -1.69750977 9.53155518 C-1.32133166 6.25479918 -0.8025103 3.21004122 0 0 Z " fill="#272629" transform="translate(515,173)"/>
<path d="M0 0 C78.54 0 157.08 0 238 0 C238 0.99 238 1.98 238 3 C159.46 3 80.92 3 0 3 C0 2.01 0 1.02 0 0 Z " fill="#C45829" transform="translate(780,312)"/>
<path d="M0 0 C1.26328125 0.02707031 2.5265625 0.05414063 3.828125 0.08203125 C4.79234375 0.11683594 5.7565625 0.15164063 6.75 0.1875 C6.33210173 4.25226615 5.88726969 8.31364686 5.4375 12.375 C5.31955078 13.52548828 5.20160156 14.67597656 5.08007812 15.86132812 C4.89155273 17.52905273 4.89155273 17.52905273 4.69921875 19.23046875 C4.58924561 20.25164795 4.47927246 21.27282715 4.3659668 22.32495117 C3.53104325 26.20504573 2.17750836 29.21433208 -1.15234375 31.484375 C-3.48498137 32.2662647 -5.35514221 32.45413186 -7.8125 32.4375 C-8.95912109 32.44523437 -8.95912109 32.44523437 -10.12890625 32.453125 C-12.25 32.1875 -12.25 32.1875 -15.25 30.1875 C-15.9375 27.5625 -15.9375 27.5625 -16.25 25.1875 C-15.59 24.8575 -14.93 24.5275 -14.25 24.1875 C-13.30125 24.6825 -12.3525 25.1775 -11.375 25.6875 C-8.19096411 27.62498513 -8.19096411 27.62498513 -4.25 26.1875 C-3.59 23.5475 -2.93 20.9075 -2.25 18.1875 C-3.11625 19.033125 -3.9825 19.87875 -4.875 20.75 C-7.48947585 22.94839537 -7.95156134 23.19313092 -11.5625 23.125 C-14.25 22.1875 -14.25 22.1875 -15.25 20.1875 C-15.77940021 14.87614048 -15.91363629 10.51477259 -13.5 5.6875 C-9.07666745 0.77268606 -6.74009112 -0.18722475 0 0 Z M-7.25 4.1875 C-9.59075925 7.69863888 -9.95663502 10.0070491 -10.25 14.1875 C-9.32847659 16.37034133 -9.32847659 16.37034133 -8.25 18.1875 C-4.27814384 14.082034 -1.54123499 11.15781739 -1.25 5.1875 C-4.22 4.6925 -4.22 4.6925 -7.25 4.1875 Z " fill="#C7562A" transform="translate(1044.25,279.8125)"/>
<path d="M0 0 C1.299375 -0.03867187 1.299375 -0.03867187 2.625 -0.078125 C5 0.25 5 0.25 6.83203125 1.62890625 C8 3.25 8 3.25 7.6875 5.4375 C7.3471875 6.3346875 7.3471875 6.3346875 7 7.25 C6.13375 6.899375 5.2675 6.54875 4.375 6.1875 C0.67983684 5.16106579 -1.34024051 5.19273615 -5 6.25 C-7.92327545 8.33805389 -8.99464516 10.84726054 -10 14.25 C-10.21275268 18.29230089 -9.9862494 21.30500241 -9 25.25 C-5.37 26.24 -1.74 27.23 2 28.25 C2.33 23.3 2.66 18.35 3 13.25 C4.98 13.25 6.96 13.25 9 13.25 C9.11988438 19.00445014 9.09324002 24.585029 8 30.25 C3.12289337 33.50140442 -2.29412249 32.70618947 -8 32.25 C-12.3551457 30.74822562 -14.64155506 29.17627481 -17 25.25 C-17.86149001 18.71281108 -18.08540019 11.69720025 -14 6.25 C-9.69064072 1.95241493 -6.09772789 0.108888 0 0 Z " fill="#C6562A" transform="translate(707,270.75)"/>
<path d="M0 0 C1.65 0.33 3.3 0.66 5 1 C4.67 6.28 4.34 11.56 4 17 C9.51035404 11.48964596 10.24914601 8.50853989 11 1 C12.9914056 0.61866701 14.99279077 0.28674418 17 0 C17.33 0.33 17.66 0.66 18 1 C17.66254246 22.80494905 17.66254246 22.80494905 12.5 29 C8.81455032 31.94835975 6.69736835 32.13332514 1.97265625 32.23046875 C0 32 0 32 -3 30 C-3.1875 27.375 -3.1875 27.375 -3 25 C-2.2265625 25.2165625 -2.2265625 25.2165625 -1.4375 25.4375 C1.68509571 26.15809901 4.82550692 26.57266439 8 27 C8.66 24.03 9.32 21.06 10 18 C8.6696875 19.2375 8.6696875 19.2375 7.3125 20.5 C5.03074566 22.41407829 4.22956344 22.96939154 1.1875 23.375 C-1 23 -1 23 -2 22 C-2.35111063 14.96746055 -2.20152241 7.94212948 -1 1 C-0.67 0.67 -0.34 0.34 0 0 Z " fill="#C85629" transform="translate(1055,280)"/>
<path d="M0 0 C0.10546143 0.55349121 0.21092285 1.10698242 0.31958008 1.67724609 C3.03377238 15.99308343 3.03377238 15.99308343 7 30 C4 32 4 32 1.9375 31.875 C0 31 0 31 -1.25 29.1875 C-2 27 -2 27 -2 23 C-5.63 23.33 -9.26 23.66 -13 24 C-13.268125 24.94875 -13.53625 25.8975 -13.8125 26.875 C-15 30 -15 30 -18 32 C-19.32 32 -20.64 32 -22 32 C-21.01190132 25.73230558 -18.00487733 20.49644946 -15.1875 14.875 C-14.38602539 13.22951172 -14.38602539 13.22951172 -13.56835938 11.55078125 C-13.04435547 10.50019531 -12.52035156 9.44960938 -11.98046875 8.3671875 C-11.26733521 6.93028564 -11.26733521 6.93028564 -10.53979492 5.46435547 C-7.73572656 0.97660123 -5.26222717 -0.43851893 0 0 Z M-6 8 C-6.83573823 9.64461345 -7.66852882 11.29072513 -8.5 12.9375 C-8.9640625 13.85402344 -9.428125 14.77054687 -9.90625 15.71484375 C-11.07195471 17.72809692 -11.07195471 17.72809692 -11 19 C-8.36 19 -5.72 19 -3 19 C-3.66 15.37 -4.32 11.74 -5 8 C-5.33 8 -5.66 8 -6 8 Z " fill="#000000" transform="translate(429,271)"/>
<path d="M0 0 C1.65 0 3.3 0 5 0 C5.66 1.65 6.32 3.3 7 5 C7.70125 4.175 8.4025 3.35 9.125 2.5 C12 0 12 0 15.1875 -0.5 C16.115625 -0.335 17.04375 -0.17 18 0 C20.8456159 4.26842385 20.50004005 7.9917864 20 13 C18.35869755 17.66475434 16.33271449 20.55107442 12 23 C8.91617126 23.32134014 6.1157201 23.18601314 3 23 C3 25.97 3 28.94 3 32 C1.35 32 -0.3 32 -2 32 C-2.31366039 21.16129087 -1.36326269 10.7356937 0 0 Z M10.625 7.1875 C6.20167009 11.90653535 6.20167009 11.90653535 5 18 C7.97 18.495 7.97 18.495 11 19 C13.80045623 15.85408067 14.35261589 13.932936 14.1875 9.75 C14.16042969 8.85796875 14.13335938 7.9659375 14.10546875 7.046875 C14.07066406 6.37140625 14.03585937 5.6959375 14 5 C12.58444121 4.88708737 12.58444121 4.88708737 10.625 7.1875 Z " fill="#CB5527" transform="translate(760,280)"/>
<path d="M0 0 C1.66611905 -0.042721 3.33382885 -0.04063832 5 0 C6 1 6 1 6.125 4.1875 C6.0141397 7.56873925 5.64663864 10.68597699 5 14 C5.886875 13.175 6.77375 12.35 7.6875 11.5 C9.9245127 9.63317853 10.79485919 9.03263604 13.75 8.5625 C16 9 16 9 18 11 C18.01171875 13.79296875 18.01171875 13.79296875 17.6875 17.1875 C17.57921875 18.35023438 17.4709375 19.51296875 17.359375 20.7109375 C16.98262769 24.15899436 16.55725502 27.57686203 16 31 C14.35 31.33 12.7 31.66 11 32 C9.91681338 27.91721966 10.16526815 24.82121165 10.9375 20.6875 C11.13214844 19.61886719 11.32679688 18.55023438 11.52734375 17.44921875 C11.68332031 16.64097656 11.83929687 15.83273437 12 15 C6.60998945 19.34195294 5.03399972 24.51165454 3 31 C1.02 31.33 -0.96 31.66 -3 32 C-2.45707868 21.2558729 -1.4598439 10.65827777 0 0 Z " fill="#C8562A" transform="translate(931,271)"/>
<path d="M0 0 C1.66611905 -0.042721 3.33382885 -0.04063832 5 0 C6 1 6 1 6.125 4.1875 C6.0141397 7.56873925 5.64663864 10.68597699 5 14 C5.886875 13.175 6.77375 12.35 7.6875 11.5 C9.9245127 9.63317853 10.79485919 9.03263604 13.75 8.5625 C16 9 16 9 18 11 C18.01171875 13.79296875 18.01171875 13.79296875 17.6875 17.1875 C17.57921875 18.35023438 17.4709375 19.51296875 17.359375 20.7109375 C16.98262769 24.15899436 16.55725502 27.57686203 16 31 C14.35 31.33 12.7 31.66 11 32 C9.91681338 27.91721966 10.16526815 24.82121165 10.9375 20.6875 C11.13214844 19.61886719 11.32679688 18.55023438 11.52734375 17.44921875 C11.68332031 16.64097656 11.83929687 15.83273437 12 15 C6.60998945 19.34195294 5.03399972 24.51165454 3 31 C1.02 31.33 -0.96 31.66 -3 32 C-2.45707868 21.2558729 -1.4598439 10.65827777 0 0 Z " fill="#C85529" transform="translate(785,271)"/>
<path d="M0 0 C1.26328125 0.02707031 2.5265625 0.05414063 3.828125 0.08203125 C4.79234375 0.11683594 5.7565625 0.15164063 6.75 0.1875 C5.81024943 7.86212965 4.7777503 15.52427447 3.75 23.1875 C2.1 23.1875 0.45 23.1875 -1.25 23.1875 C-1.58 21.5375 -1.91 19.8875 -2.25 18.1875 C-3.301875 19.425 -3.301875 19.425 -4.375 20.6875 C-7.25 23.1875 -7.25 23.1875 -10.4375 23.625 C-13.25 23.1875 -13.25 23.1875 -15.25 21.1875 C-15.96623801 15.62416288 -15.98858383 10.69104565 -13.5 5.625 C-9.03629169 0.789316 -6.72157348 -0.18671037 0 0 Z M-6.25 4.1875 C-8.21966795 5.55770379 -9.13185633 6.73742888 -9.7421875 9.0625 C-10.5264232 13.86678787 -10.5264232 13.86678787 -8.25 18.1875 C-3.28287404 12.79886352 -3.28287404 12.79886352 -0.25 6.1875 C-2.23 5.5275 -4.21 4.8675 -6.25 4.1875 Z " fill="#C85529" transform="translate(852.25,279.8125)"/>
<path d="M0 0 C1.26328125 0.02707031 2.5265625 0.05414063 3.828125 0.08203125 C4.79234375 0.11683594 5.7565625 0.15164063 6.75 0.1875 C5.81024943 7.86212965 4.7777503 15.52427447 3.75 23.1875 C2.1 23.1875 0.45 23.1875 -1.25 23.1875 C-1.58 21.5375 -1.91 19.8875 -2.25 18.1875 C-3.301875 19.425 -3.301875 19.425 -4.375 20.6875 C-7.25 23.1875 -7.25 23.1875 -10.4375 23.625 C-13.25 23.1875 -13.25 23.1875 -15.25 21.1875 C-15.96623801 15.62416288 -15.98858383 10.69104565 -13.5 5.625 C-9.03629169 0.789316 -6.72157348 -0.18671037 0 0 Z M-6.25 4.1875 C-8.21966795 5.55770379 -9.13185633 6.73742888 -9.7421875 9.0625 C-10.5264232 13.86678787 -10.5264232 13.86678787 -8.25 18.1875 C-3.28287404 12.79886352 -3.28287404 12.79886352 -0.25 6.1875 C-2.23 5.5275 -4.21 4.8675 -6.25 4.1875 Z " fill="#C8562A" transform="translate(749.25,279.8125)"/>
<path d="M0 0 C1.26328125 0.02707031 2.5265625 0.05414063 3.828125 0.08203125 C4.79234375 0.11683594 5.7565625 0.15164063 6.75 0.1875 C5.81024943 7.86212965 4.7777503 15.52427447 3.75 23.1875 C2.1 23.1875 0.45 23.1875 -1.25 23.1875 C-1.58 21.5375 -1.91 19.8875 -2.25 18.1875 C-3.301875 19.425 -3.301875 19.425 -4.375 20.6875 C-7.25 23.1875 -7.25 23.1875 -10.4375 23.625 C-13.25 23.1875 -13.25 23.1875 -15.25 21.1875 C-15.96623801 15.62416288 -15.98858383 10.69104565 -13.5 5.625 C-9.03629169 0.789316 -6.72157348 -0.18671037 0 0 Z M-6.25 4.1875 C-8.21966795 5.55770379 -9.13185633 6.73742888 -9.7421875 9.0625 C-10.5264232 13.86678787 -10.5264232 13.86678787 -8.25 18.1875 C-3.28287404 12.79886352 -3.28287404 12.79886352 -0.25 6.1875 C-2.23 5.5275 -4.21 4.8675 -6.25 4.1875 Z " fill="#000000" transform="translate(557.25,279.8125)"/>
<path d="M0 0 C1.65 0 3.3 0 5 0 C5.66 1.32 6.32 2.64 7 4 C7.70125 3.34 8.4025 2.68 9.125 2 C12.44377677 -0.30871428 14.04644974 -0.44926708 18 0 C19 1 19 1 19.1875 4.75 C19.13767478 10.91836199 18.04973907 16.93588231 17 23 C15.35 23 13.7 23 12 23 C10.6642543 19.22628488 11.27591329 16.14168653 11.9375 12.25 C12.13214844 11.07953125 12.32679688 9.9090625 12.52734375 8.703125 C12.68332031 7.81109375 12.83929687 6.9190625 13 6 C7.60998945 10.34195294 6.03399972 15.51165454 4 22 C2.02 22.33 0.04 22.66 -2 23 C-1.48594306 15.31102069 -0.9234499 7.65144206 0 0 Z " fill="#C75629" transform="translate(954,280)"/>
<path d="M0 0 C1.65 0 3.3 0 5 0 C5.66 1.32 6.32 2.64 7 4 C7.70125 3.34 8.4025 2.68 9.125 2 C12.44377677 -0.30871428 14.04644974 -0.44926708 18 0 C19 1 19 1 19.1875 4.75 C19.13767478 10.91836199 18.04973907 16.93588231 17 23 C15.35 23 13.7 23 12 23 C10.6642543 19.22628488 11.27591329 16.14168653 11.9375 12.25 C12.13214844 11.07953125 12.32679688 9.9090625 12.52734375 8.703125 C12.68332031 7.81109375 12.83929688 6.9190625 13 6 C7.60998945 10.34195294 6.03399972 15.51165454 4 22 C2.02 22.33 0.04 22.66 -2 23 C-1.48594306 15.31102069 -0.9234499 7.65144206 0 0 Z " fill="#000000" transform="translate(486,280)"/>
<path d="M0 0 C1.65 0 3.3 0 5 0 C5.66 1.32 6.32 2.64 7 4 C7.70125 3.34 8.4025 2.68 9.125 2 C12.44377677 -0.30871428 14.04644974 -0.44926708 18 0 C19 1 19 1 19.1875 4.75 C19.13767478 10.91836199 18.04973907 16.93588231 17 23 C15.35 23 13.7 23 12 23 C10.6642543 19.22628488 11.27591329 16.14168653 11.9375 12.25 C12.13214844 11.07953125 12.32679688 9.9090625 12.52734375 8.703125 C12.68332031 7.81109375 12.83929688 6.9190625 13 6 C7.60998945 10.34195294 6.03399972 15.51165454 4 22 C2.02 22.33 0.04 22.66 -2 23 C-1.48594306 15.31102069 -0.9234499 7.65144206 0 0 Z " fill="#000000" transform="translate(440,280)"/>
<path d="M0 0 C1.125 3.75 1.125 3.75 0 6 C-2.31 5.67 -4.62 5.34 -7 5 C-7.33 6.65 -7.66 8.3 -8 10 C-6.35 10 -4.7 10 -3 10 C-3 10.99 -3 11.98 -3 13 C-4.98 13.33 -6.96 13.66 -9 14 C-9.03738281 15.05058594 -9.07476563 16.10117187 -9.11328125 17.18359375 C-9.7588763 32.03758612 -9.7588763 32.03758612 -13 39 C-15.10546875 40.2265625 -15.10546875 40.2265625 -17 41 C-17.34915606 31.84435229 -16.27041977 23.04039783 -15 14 C-15.66 14 -16.32 14 -17 14 C-16.67 12.68 -16.34 11.36 -16 10 C-15.34 10 -14.68 10 -14 10 C-13.9071875 8.63875 -13.9071875 8.63875 -13.8125 7.25 C-13 4 -13 4 -10.9375 1.625 C-6.98286986 -0.56266774 -4.47232658 -0.30320858 0 0 Z " fill="#000000" transform="translate(681,271)"/>
<path d="M0 0 C2.9375 2 2.9375 2 5 5 C5.71204395 10.60734613 5.17513776 14.18254961 2 19 C-0.83877894 22.08210285 -2.94239317 23.27025427 -7.0625 23.5 C-11 23 -11 23 -13.5 21.6875 C-15.94541117 17.30613832 -15.59629543 12.89398564 -15 8 C-13.68118757 4.66826334 -12.51277608 3.41306962 -9.75 1.1875 C-6.17330586 -0.35698156 -3.86097632 -0.55156805 0 0 Z M-7.6875 5.4375 C-9.59273123 9.15723716 -9.61123039 12.88808647 -9 17 C-8.34 17.66 -7.68 18.32 -7 19 C-4.94285168 18.98617135 -4.94285168 18.98617135 -3 18 C-0.41052104 14.63367735 -0.70205427 11.09675382 -1 7 C-1.66 6.01 -2.32 5.02 -3 4 C-5.9888398 3.67576677 -5.9888398 3.67576677 -7.6875 5.4375 Z " fill="#C9552A" transform="translate(990,280)"/>
<path d="M0 0 C2.9375 2 2.9375 2 5 5 C5.71204395 10.60734613 5.17513776 14.18254961 2 19 C-0.83877894 22.08210285 -2.94239317 23.27025427 -7.0625 23.5 C-11 23 -11 23 -13.5 21.6875 C-15.94541117 17.30613832 -15.59629543 12.89398564 -15 8 C-13.68118757 4.66826334 -12.51277608 3.41306962 -9.75 1.1875 C-6.17330586 -0.35698156 -3.86097632 -0.55156805 0 0 Z M-7.6875 5.4375 C-9.59273123 9.15723716 -9.61123039 12.88808647 -9 17 C-8.34 17.66 -7.68 18.32 -7 19 C-4.94285168 18.98617135 -4.94285168 18.98617135 -3 18 C-0.41052104 14.63367735 -0.70205427 11.09675382 -1 7 C-1.66 6.01 -2.32 5.02 -3 4 C-5.9888398 3.67576677 -5.9888398 3.67576677 -7.6875 5.4375 Z " fill="#CC542A" transform="translate(1022,280)"/>
<path d="M0 0 C2.9375 2 2.9375 2 5 5 C5.71204395 10.60734613 5.17513776 14.18254961 2 19 C-0.83877894 22.08210285 -2.94239317 23.27025427 -7.0625 23.5 C-11 23 -11 23 -13.5 21.6875 C-15.94541117 17.30613832 -15.59629543 12.89398564 -15 8 C-13.68118757 4.66826334 -12.51277608 3.41306962 -9.75 1.1875 C-6.17330586 -0.35698156 -3.86097632 -0.55156805 0 0 Z M-7.6875 5.4375 C-9.59273123 9.15723716 -9.61123039 12.88808647 -9 17 C-8.34 17.66 -7.68 18.32 -7 19 C-4.94285168 18.98617135 -4.94285168 18.98617135 -3 18 C-0.41052104 14.63367735 -0.70205427 11.09675382 -1 7 C-1.66 6.01 -2.32 5.02 -3 4 C-5.9888398 3.67576677 -5.9888398 3.67576677 -7.6875 5.4375 Z " fill="#000000" transform="translate(657,280)"/>
<path d="M0 0 C2.5 1.4375 2.5 1.4375 4 4 C4.92898218 8.74223282 4.66354956 11.9511636 2.0625 16.0625 C-2.05377369 18.66667315 -5.25315517 18.92102959 -10 18 C-12.5625 16.5625 -12.5625 16.5625 -14 14 C-14.5412803 10.89476039 -14.58150746 8.1013731 -14 5 C-10.24173332 -0.01102224 -6.07804358 -0.81681218 0 0 Z " fill="#262626" transform="translate(529,148)"/>
<path d="M0 0 C0.99 0.66 1.98 1.32 3 2 C3.5 5.375 3.5 5.375 3 9 C-0.1751122 12.45526916 -3.53311774 13.75342821 -8 15 C-8 15.66 -8 16.32 -8 17 C-4.53058454 16.54177532 -1.32604951 16.10868317 2 15 C1.73593684 18.25677898 1.43253722 19.61989153 -1.0625 21.8125 C-5.07161834 23.43320741 -7.68028502 23.41803693 -12 23 C-13.71484375 21.83984375 -13.71484375 21.83984375 -15 20 C-15.82838174 14.8282113 -16.12113011 8.94838117 -13.25 4.375 C-9.05717148 -0.05076343 -6.10570641 -0.44405137 0 0 Z M-7.6875 5.25 C-9.4 7.16875 -9.4 7.16875 -9 11 C-6.47636012 10.37466625 -6.47636012 10.37466625 -4 9 C-3.10613836 6.45224694 -3.10613836 6.45224694 -3 4 C-5.9482276 3.70238622 -5.9482276 3.70238622 -7.6875 5.25 Z " fill="#C85629" transform="translate(906,280)"/>
<path d="M0 0 C0.99 0.66 1.98 1.32 3 2 C3.5 5.375 3.5 5.375 3 9 C-0.1751122 12.45526916 -3.53311774 13.75342821 -8 15 C-8 15.66 -8 16.32 -8 17 C-4.53058454 16.54177532 -1.32604951 16.10868317 2 15 C1.73593684 18.25677898 1.43253722 19.61989153 -1.0625 21.8125 C-5.07161834 23.43320741 -7.68028502 23.41803693 -12 23 C-13.71484375 21.83984375 -13.71484375 21.83984375 -15 20 C-15.82838174 14.8282113 -16.12113011 8.94838117 -13.25 4.375 C-9.05717148 -0.05076343 -6.10570641 -0.44405137 0 0 Z M-7.6875 5.25 C-9.4 7.16875 -9.4 7.16875 -9 11 C-6.47636012 10.37466625 -6.47636012 10.37466625 -4 9 C-3.10613836 6.45224694 -3.10613836 6.45224694 -3 4 C-5.9482276 3.70238622 -5.9482276 3.70238622 -7.6875 5.25 Z " fill="#000000" transform="translate(627,280)"/>
<path d="M0 0 C0.042721 1.66611905 0.04063832 3.33382885 0 5 C-0.33 5.33 -0.66 5.66 -1 6 C-3.33944736 5.71269945 -5.6739143 5.38063221 -8 5 C-8.05534912 5.67579102 -8.11069824 6.35158203 -8.16772461 7.04785156 C-8.42090531 10.11552698 -8.6791479 13.18275596 -8.9375 16.25 C-9.06801758 17.84521484 -9.06801758 17.84521484 -9.20117188 19.47265625 C-9.28818359 20.49746094 -9.37519531 21.52226562 -9.46484375 22.578125 C-9.543396 23.52075195 -9.62194824 24.46337891 -9.70288086 25.43457031 C-9.96612311 27.70749522 -10.38231108 29.80075595 -11 32 C-12.65 32 -14.3 32 -16 32 C-17.33457304 26.38172748 -16.71222727 21.28287348 -16.0625 15.625 C-15.96259766 14.69816406 -15.86269531 13.77132813 -15.75976562 12.81640625 C-15.51371624 10.54337864 -15.26027524 8.27143509 -15 6 C-17.31 6.33 -19.62 6.66 -22 7 C-22.042721 5.33388095 -22.04063832 3.66617115 -22 2 C-20.05339295 0.05339295 -16.47918556 0.59168751 -13.8125 0.4375 C-11.84216797 0.31181641 -11.84216797 0.31181641 -9.83203125 0.18359375 C-6.54560241 0.02613997 -3.2891357 -0.03580708 0 0 Z " fill="#C95527" transform="translate(894,271)"/>
<path d="M0 0 C0.66 5.28 1.32 10.56 2 16 C5.50270347 12.49729653 5.57169491 11.09683188 6.1875 6.3125 C6.42533203 4.54326172 6.42533203 4.54326172 6.66796875 2.73828125 C6.77753906 1.83464844 6.88710938 0.93101562 7 0 C8.98 -0.33 10.96 -0.66 13 -1 C13.58105725 6.98953719 11.27651376 12.23197722 7.1875 19 C4.2613204 21.67536421 1.88329653 21.77596366 -2 22 C-5.81089087 18.19954992 -5.75429476 13.8371808 -6.1875 8.75 C-6.26935547 7.90953125 -6.35121094 7.0690625 -6.43554688 6.203125 C-6.63516482 4.13649217 -6.81912511 2.06835752 -7 0 C-5 -1 -5 -1 0 0 Z " fill="#000000" transform="translate(598,281)"/>
<path d="M0 0 C0 1.65 0 3.3 0 5 C1.98 5 3.96 5 6 5 C5.67 5.99 5.34 6.98 5 8 C3.02 8.33 1.04 8.66 -1 9 C-1.33 13.29 -1.66 17.58 -2 22 C-0.35 21.67 1.3 21.34 3 21 C2.6875 22.875 2.6875 22.875 2 25 C-1.44107266 27.29404844 -2.96839809 27.26293056 -7 27 C-9.36750842 24.63249158 -8.32862595 18.92451421 -8.375 15.75 C-8.43107422 14.31720703 -8.43107422 14.31720703 -8.48828125 12.85546875 C-8.54795914 8.08786816 -8.56171119 5.76272489 -5.6640625 1.828125 C-3 0 -3 0 0 0 Z " fill="#000000" transform="translate(575,276)"/>
<path d="M0 0 C0 1.65 0 3.3 0 5 C1.98 5 3.96 5 6 5 C5.67 5.99 5.34 6.98 5 8 C3.02 8.33 1.04 8.66 -1 9 C-1.33 13.29 -1.66 17.58 -2 22 C-0.35 21.67 1.3 21.34 3 21 C2.6875 22.875 2.6875 22.875 2 25 C-1.44107266 27.29404844 -2.96839809 27.26293056 -7 27 C-9.36750842 24.63249158 -8.32862595 18.92451421 -8.375 15.75 C-8.43107422 14.31720703 -8.43107422 14.31720703 -8.48828125 12.85546875 C-8.54795914 8.08786816 -8.56171119 5.76272489 -5.6640625 1.828125 C-3 0 -3 0 0 0 Z " fill="#000000" transform="translate(526,276)"/>
<path d="M0 0 C0.33 1.65 0.66 3.3 1 5 C-1.36408207 5.75988352 -2.69013267 6.0820237 -5.125 5.4375 C-6.053125 5.2209375 -6.053125 5.2209375 -7 5 C-9.25900493 7.25900493 -9.34458029 7.94183075 -9.6875 11 C-9.77386719 11.70125 -9.86023438 12.4025 -9.94921875 13.125 C-10.14989516 15.0929304 -10.14989516 15.0929304 -9 17 C-6.03 16.67 -3.06 16.34 0 16 C-1.44827586 20.5862069 -1.44827586 20.5862069 -3.75 22.3125 C-6.68074571 23.20800563 -8.94914436 23.31779746 -12 23 C-14.15625 21.84375 -14.15625 21.84375 -16 20 C-17.00588667 14.87441572 -17.09418201 8.92343393 -14.25 4.375 C-9.7059788 -0.42146682 -6.37410533 -0.21247018 0 0 Z " fill="#C2582E" transform="translate(926,280)"/>
<path d="M0 0 C2.375 -0.1875 2.375 -0.1875 5 0 C5.66 0.99 6.32 1.98 7 3 C7.391875 2.505 7.78375 2.01 8.1875 1.5 C10.55091715 -0.45593143 12.01435003 -0.24207973 15 0 C15 1.98 15 3.96 15 6 C14.0925 6.12375 13.185 6.2475 12.25 6.375 C7.89099423 8.55450289 7.39753229 10.93522438 5.859375 15.39453125 C5.57578125 16.25433594 5.2921875 17.11414063 5 18 C4.3437054 19.67077815 3.68001514 21.33873493 3 23 C1.35 23 -0.3 23 -2 23 C-1.48594306 15.31102069 -0.9234499 7.65144206 0 0 Z " fill="#C85529" transform="translate(720,280)"/>
<path d="M0 0 C1.65 0 3.3 0 5 0 C6.02148294 4.01087072 5.92698723 7.29622775 5.44140625 11.39453125 C5.30283203 12.59658203 5.16425781 13.79863281 5.02148438 15.03710938 C4.87001953 16.28298828 4.71855469 17.52886719 4.5625 18.8125 C4.41490234 20.07771484 4.26730469 21.34292969 4.11523438 22.64648438 C3.75040279 25.76520595 3.37841633 28.8829025 3 32 C1.33388095 32.042721 -0.33382885 32.04063832 -2 32 C-3 31 -3 31 -3.12109375 27.0546875 C-3.06450173 22.04083306 -2.61630185 17.10528902 -2.0625 12.125 C-1.97548828 11.28453125 -1.88847656 10.4440625 -1.79882812 9.578125 C-1.43411215 6.19572204 -1.08074238 3.24222715 0 0 Z " fill="#000000" transform="translate(476,271)"/>
<path d="M0 0 C2.5 0.125 2.5 0.125 3.5 1.125 C3.78466323 8.12059882 3.01567525 14.77450312 2 21.6875 C1.85691406 22.69619141 1.71382812 23.70488281 1.56640625 24.74414062 C1.2164815 27.20527802 0.86091674 29.6654548 0.5 32.125 C-1.15 32.125 -2.8 32.125 -4.5 32.125 C-4.604444 24.28009546 -4.49870005 16.55642692 -3.71875 8.74609375 C-3.4565676 6.10202379 -3.4565676 6.10202379 -3.53125 3.34765625 C-3.48647567 0.16308168 -3.18456985 0.15922849 0 0 Z " fill="#C8552B" transform="translate(820.5,270.875)"/>
<path d="M0 0 C2.5 0.125 2.5 0.125 3.5 1.125 C3.78466323 8.12059882 3.01567525 14.77450312 2 21.6875 C1.85691406 22.69619141 1.71382812 23.70488281 1.56640625 24.74414062 C1.2164815 27.20527802 0.86091674 29.6654548 0.5 32.125 C-1.15 32.125 -2.8 32.125 -4.5 32.125 C-4.604444 24.28009546 -4.49870005 16.55642692 -3.71875 8.74609375 C-3.4565676 6.10202379 -3.4565676 6.10202379 -3.53125 3.34765625 C-3.48647567 0.16308168 -3.18456985 0.15922849 0 0 Z " fill="#CA542A" transform="translate(831.5,270.875)"/>
<path d="M0 0 C2.5 0.125 2.5 0.125 3.5 1.125 C3.78466323 8.12059882 3.01567525 14.77450312 2 21.6875 C1.85691406 22.69619141 1.71382812 23.70488281 1.56640625 24.74414062 C1.2164815 27.20527802 0.86091674 29.6654548 0.5 32.125 C-1.15 32.125 -2.8 32.125 -4.5 32.125 C-4.604444 24.28009546 -4.49870005 16.55642692 -3.71875 8.74609375 C-3.4565676 6.10202379 -3.4565676 6.10202379 -3.53125 3.34765625 C-3.48647567 0.16308168 -3.18456985 0.15922849 0 0 Z " fill="#C7562A" transform="translate(1002.5,270.875)"/>
<path d="M0 0 C1.65 0 3.3 0 5 0 C5.66 1.65 6.32 3.3 7 5 C7.70125 4.175 8.4025 3.35 9.125 2.5 C12 0 12 0 15.3125 -0.3125 C16.199375 -0.209375 17.08625 -0.10625 18 0 C18 0.66 18 1.32 18 2 C17.01 2.66 16.02 3.32 15 4 C14.63583953 6.43693311 14.63583953 6.43693311 14.8125 9.125 C14.83957031 10.03507812 14.86664062 10.94515625 14.89453125 11.8828125 C14.94673828 12.93082031 14.94673828 12.93082031 15 14 C14.67 14 14.34 14 14 14 C13.67 11.36 13.34 8.72 13 6 C11.02 7.65 9.04 9.3 7 11 C6.401875 10.649375 5.80375 10.29875 5.1875 9.9375 C2.89186786 8.66695302 2.89186786 8.66695302 0 10 C0 10.66 0 11.32 0 12 C0.66 12 1.32 12 2 12 C2 14.31 2 16.62 2 19 C1.01 19.33 0.02 19.66 -1 20 C-1 23.63 -1 27.26 -1 31 C0.32 31.33 1.64 31.66 3 32 C1.35 32 -0.3 32 -2 32 C-2.31366039 21.16129087 -1.36326269 10.7356937 0 0 Z " fill="#C3572F" transform="translate(760,280)"/>
<path d="M0 0 C1.66611905 -0.042721 3.33382885 -0.04063832 5 0 C5.33 0.33 5.66 0.66 6 1 C5.78037849 8.35732045 5.02025743 15.71244691 4 23 C2.35 23 0.7 23 -1 23 C-2.42315318 18.11350903 -1.6919778 13.64121661 -1.0625 8.6875 C-0.96259766 7.85154297 -0.86269531 7.01558594 -0.75976562 6.15429688 C-0.51349177 4.10201477 -0.25769102 2.05087981 0 0 Z " fill="#CA5529" transform="translate(807,280)"/>
<path d="M0 0 C1.66611905 -0.042721 3.33382885 -0.04063832 5 0 C5.33 0.33 5.66 0.66 6 1 C5.78037849 8.35732045 5.02025743 15.71244691 4 23 C2.35 23 0.7 23 -1 23 C-2.42315318 18.11350903 -1.6919778 13.64121661 -1.0625 8.6875 C-0.96259766 7.85154297 -0.86269531 7.01558594 -0.75976562 6.15429688 C-0.51349177 4.10201477 -0.25769102 2.05087981 0 0 Z " fill="#000000" transform="translate(583,280)"/>
<path d="M0 0 C1.66611905 -0.042721 3.33382885 -0.04063832 5 0 C5.33 0.33 5.66 0.66 6 1 C5.78037849 8.35732045 5.02025743 15.71244691 4 23 C2.35 23 0.7 23 -1 23 C-2.42315318 18.11350903 -1.6919778 13.64121661 -1.0625 8.6875 C-0.96259766 7.85154297 -0.86269531 7.01558594 -0.75976562 6.15429688 C-0.51349177 4.10201477 -0.25769102 2.05087981 0 0 Z " fill="#000000" transform="translate(534,280)"/>
<path d="M0 0 C1.66611905 -0.042721 3.33382885 -0.04063832 5 0 C5.33 0.33 5.66 0.66 6 1 C5.78037849 8.35732045 5.02025743 15.71244691 4 23 C2.35 23 0.7 23 -1 23 C-2.42315318 18.11350903 -1.6919778 13.64121661 -1.0625 8.6875 C-0.96259766 7.85154297 -0.86269531 7.01558594 -0.75976562 6.15429688 C-0.51349177 4.10201477 -0.25769102 2.05087981 0 0 Z " fill="#000000" transform="translate(509,280)"/>
<path d="M0 0 C2.97 0 5.94 0 9 0 C9 1.65 9 3.3 9 5 C8.01 5 7.02 5 6 5 C6 6.32 6 7.64 6 9 C5.34 9 4.68 9 4 9 C3.896875 8.360625 3.79375 7.72125 3.6875 7.0625 C3.460625 6.381875 3.23375 5.70125 3 5 C2.01 4.67 1.02 4.34 0 4 C0 2.68 0 1.36 0 0 Z " fill="#CF5525" transform="translate(1040,281)"/>
<path d="M0 0 C0.66 0.33 1.32 0.66 2 1 C2 4.3 2 7.6 2 11 C0.02 11.99 0.02 11.99 -2 13 C-2.33 9.37 -2.66 5.74 -3 2 C-2.01 1.34 -1.02 0.68 0 0 Z " fill="#D05323" transform="translate(913,286)"/>
<path d="M0 0 C0.78375 0.04125 1.5675 0.0825 2.375 0.125 C3 1.9375 3 1.9375 3.375 4.125 C2.385 5.61 2.385 5.61 1.375 7.125 C-0.275 6.795 -1.925 6.465 -3.625 6.125 C-4.25 4.25 -4.25 4.25 -4.625 2.125 C-2.625 0.125 -2.625 0.125 0 0 Z " fill="#C7562B" transform="translate(811.625,270.875)"/>
<path d="M0 0 C0.78375 0.04125 1.5675 0.0825 2.375 0.125 C3 1.9375 3 1.9375 3.375 4.125 C2.385 5.61 2.385 5.61 1.375 7.125 C-0.275 6.795 -1.925 6.465 -3.625 6.125 C-4.25 4.25 -4.25 4.25 -4.625 2.125 C-2.625 0.125 -2.625 0.125 0 0 Z " fill="#000000" transform="translate(587.625,270.875)"/>
<path d="M0 0 C0.78375 0.04125 1.5675 0.0825 2.375 0.125 C3 1.9375 3 1.9375 3.375 4.125 C2.385 5.61 2.385 5.61 1.375 7.125 C-0.275 6.795 -1.925 6.465 -3.625 6.125 C-4.25 4.25 -4.25 4.25 -4.625 2.125 C-2.625 0.125 -2.625 0.125 0 0 Z " fill="#000000" transform="translate(538.625,270.875)"/>
<path d="M0 0 C0.78375 0.04125 1.5675 0.0825 2.375 0.125 C3 1.9375 3 1.9375 3.375 4.125 C2.385 5.61 2.385 5.61 1.375 7.125 C-0.275 6.795 -1.925 6.465 -3.625 6.125 C-4.25 4.25 -4.25 4.25 -4.625 2.125 C-2.625 0.125 -2.625 0.125 0 0 Z " fill="#000000" transform="translate(513.625,270.875)"/>
<path d="M0 0 C-1.32 0.33 -2.64 0.66 -4 1 C-4 1.99 -4 2.98 -4 4 C-6.5 5.6875 -6.5 5.6875 -9 7 C-10.32 6.01 -11.64 5.02 -13 4 C-8.48649253 0.47726246 -5.71658336 -0.45732667 0 0 Z " fill="#C45439" transform="translate(906,280)"/>
<path d="M0 0 C2.475 0.99 2.475 0.99 5 2 C5 3.32 5 4.64 5 6 C7.31 6.33 9.62 6.66 12 7 C12 7.33 12 7.66 12 8 C10.5629191 8.05422947 9.12524538 8.09289723 7.6875 8.125 C6.88699219 8.14820313 6.08648438 8.17140625 5.26171875 8.1953125 C3 8 3 8 0 6 C-0.75 3.4375 -0.75 3.4375 -1 1 C-0.67 0.67 -0.34 0.34 0 0 Z " fill="#C05735" transform="translate(1029,304)"/>
<path d="M0 0 C-2.04327733 3.064916 -3.66355813 4.4932198 -7 6 C-7.66 6.66 -8.32 7.32 -9 8 C-10.5 6.625 -10.5 6.625 -12 5 C-12 4.34 -12 3.68 -12 3 C-8.02806853 -0.12940055 -4.95769796 -0.29162929 0 0 Z " fill="#C15A2F" transform="translate(1022,280)"/>
<path d="M0 0 C-1.87824891 1.87824891 -5.03935276 1.39102397 -7.5625 1.5625 C-8.76003906 1.64628906 -9.95757813 1.73007812 -11.19140625 1.81640625 C-12.11824219 1.87699219 -13.04507813 1.93757813 -14 2 C-14 2.99 -14 3.98 -14 5 C-15.32 5.33 -16.64 5.66 -18 6 C-18.042721 4.33388095 -18.04063832 2.66617115 -18 1 C-16.01304416 -0.98695584 -12.28886897 -0.45381524 -9.5625 -0.625 C-8.86833984 -0.6765625 -8.17417969 -0.728125 -7.45898438 -0.78125 C-2.24848963 -1.12424481 -2.24848963 -1.12424481 0 0 Z " fill="#BC5A34" transform="translate(890,272)"/>
<path d="M0 0 C1.65 0 3.3 0 5 0 C5.20086443 3.71599191 5.1519437 4.77208445 3 8 C2.34 8 1.68 8 1 8 C0.67 5.36 0.34 2.72 0 0 Z " fill="#CE522E" transform="translate(721,281)"/>
<path d="M0 0 C2.69082872 0.17635452 5.32851446 0.61835921 8 1 C8 1.66 8 2.32 8 3 C7.34 3 6.68 3 6 3 C6 3.66 6 4.32 6 5 C5.34 5 4.68 5 4 5 C4 4.34 4 3.68 4 3 C2.68 3 1.36 3 0 3 C0 3.66 0 4.32 0 5 C-0.66 5 -1.32 5 -2 5 C-1.125 1.125 -1.125 1.125 0 0 Z " fill="#C7571C" transform="translate(770,221)"/>
<path d="M0 0 C1.125 1.75 1.125 1.75 2 4 C1.125 6.25 1.125 6.25 0 8 C-0.66 8 -1.32 8 -2 8 C-2.33 9.32 -2.66 10.64 -3 12 C-3.66 12 -4.32 12 -5 12 C-3.68938409 7.76570244 -2.05643741 3.92592596 0 0 Z " fill="#C45635" transform="translate(670,216)"/>
<path d="M0 0 C1.32 0 2.64 0 4 0 C4 2.64 4 5.28 4 8 C3.67 7.34 3.34 6.68 3 6 C2.34 6 1.68 6 1 6 C0.67 6.66 0.34 7.32 0 8 C0 5.36 0 2.72 0 0 Z " fill="#D05227" transform="translate(797,288)"/>
<path d="M0 0 C0.98120464 3.05263664 0.98120464 4.94736336 0 8 C-0.66 8 -1.32 8 -2 8 C-2.33 9.32 -2.66 10.64 -3 12 C-3.66 12 -4.32 12 -5 12 C-3.68938409 7.76570244 -2.05643741 3.92592596 0 0 Z " fill="#C25534" transform="translate(686,184)"/>
<path d="M0 0 C0.99 0.99 1.98 1.98 3 3 C2.01 4.32 1.02 5.64 0 7 C-0.66 6.67 -1.32 6.34 -2 6 C-2.33 7.32 -2.66 8.64 -3 10 C-3.66 9.67 -4.32 9.34 -5 9 C-3.35 6.03 -1.7 3.06 0 0 Z " fill="#C0572D" transform="translate(1086,202)"/>
<path d="M0 0 C0.66 0.33 1.32 0.66 2 1 C1.34 1.66 0.68 2.32 0 3 C0.32041397 5.60280568 0.32041397 5.60280568 1 8 C-0.32 8 -1.64 8 -3 8 C-3.75 6.25 -3.75 6.25 -4 4 C-2.0625 1.75 -2.0625 1.75 0 0 Z " fill="#C35A23" transform="translate(921,178)"/>
<path d="M0 0 C1.65 0 3.3 0 5 0 C5 1.98 5 3.96 5 6 C3.35 6.33 1.7 6.66 0 7 C0 6.01 0 5.02 0 4 C1.32 3.67 2.64 3.34 4 3 C4 2.34 4 1.68 4 1 C2.68 0.67 1.36 0.34 0 0 Z " fill="#C3582B" transform="translate(730,280)"/>
<path d="M0 0 C1.32 0 2.64 0 4 0 C4 0.66 4 1.32 4 2 C4.66 2.33 5.32 2.66 6 3 C4.68 3.99 3.36 4.98 2 6 C2 5.34 2 4.68 2 4 C1.34 4 0.68 4 0 4 C0 2.68 0 1.36 0 0 Z " fill="#BF5B24" transform="translate(870,222)"/>
<path d="M0 0 C0.66 0.33 1.32 0.66 2 1 C2 3.64 2 6.28 2 9 C1.01 9.495 1.01 9.495 0 10 C-1.125 2.25 -1.125 2.25 0 0 Z " fill="#C65433" transform="translate(910,193)"/>
<path d="M0 0 C0.33 0 0.66 0 1 0 C1.33 3.63 1.66 7.26 2 11 C1.01 11 0.02 11 -1 11 C-0.67 7.37 -0.34 3.74 0 0 Z " fill="#BE5A2D" transform="translate(796,291)"/>
<path d="M0 0 C1 2 1 2 0.25 5.5625 C-0.1625 6.696875 -0.575 7.83125 -1 9 C-1.99 9.33 -2.98 9.66 -4 10 C-3.67 8.02 -3.34 6.04 -3 4 C-2.34 4 -1.68 4 -1 4 C-0.67 2.68 -0.34 1.36 0 0 Z " fill="#C35538" transform="translate(789,293)"/>
<path d="M0 0 C-0.99 0 -1.98 0 -3 0 C-3.12375 0.78375 -3.2475 1.5675 -3.375 2.375 C-4 5 -4 5 -6 7 C-6 4.69 -6 2.38 -6 0 C-3.50907189 -1.24546405 -2.58919267 -0.7767578 0 0 Z " fill="#BE5A37" transform="translate(1072,281)"/>
<path d="M0 0 C-1.32 0.33 -2.64 0.66 -4 1 C-4 1.66 -4 2.32 -4 3 C-5.98 3.33 -7.96 3.66 -10 4 C-9.67 3.01 -9.34 2.02 -9 1 C-6.04335481 -0.4783226 -3.25770263 -0.06032783 0 0 Z " fill="#BF5A2C" transform="translate(906,280)"/>
<path d="M0 0 C0.99 0 1.98 0 3 0 C3 0.66 3 1.32 3 2 C2.34 2 1.68 2 1 2 C1 3.98 1 5.96 1 8 C0.34 8 -0.32 8 -1 8 C-1.04241723 5.66705225 -1.04092937 3.33297433 -1 1 C-0.67 0.67 -0.34 0.34 0 0 Z " fill="#CC5134" transform="translate(885,192)"/>
<path d="M0 0 C-2.9826906 1.52448631 -5.818202 2.93940067 -9 4 C-9.66 3.34 -10.32 2.68 -11 2 C-9.73392393 1.46770674 -8.46189588 0.94955456 -7.1875 0.4375 C-6.47980469 0.14746094 -5.77210938 -0.14257812 -5.04296875 -0.44140625 C-3 -1 -3 -1 0 0 Z " fill="#C0592A" transform="translate(935,174)"/>
<path d="M0 0 C0.33 0 0.66 0 1 0 C1 2.64 1 5.28 1 8 C-0.32 7.67 -1.64 7.34 -3 7 C-3 6.01 -3 5.02 -3 4 C-2.01 4 -1.02 4 0 4 C0 2.68 0 1.36 0 0 Z " fill="#B0592C" transform="translate(269,98)"/>
<path d="M0 0 C0.33 0 0.66 0 1 0 C1.042721 1.66611905 1.04063832 3.33382885 1 5 C0.67 5.33 0.34 5.66 0 6 C-2.33944736 5.71269945 -4.6739143 5.38063221 -7 5 C-6.401875 4.855625 -5.80375 4.71125 -5.1875 4.5625 C-3.43849596 4.1127561 -1.71322977 3.57107659 0 3 C0 2.01 0 1.02 0 0 Z " fill="#C25732" transform="translate(893,271)"/>
<path d="M0 0 C0.99 0 1.98 0 3 0 C3 1.98 3 3.96 3 6 C2.01 6 1.02 6 0 6 C0 4.02 0 2.04 0 0 Z " fill="#D15223" transform="translate(934,273)"/>
<path d="M0 0 C1.32 0 2.64 0 4 0 C3.67 1.65 3.34 3.3 3 5 C1.68 3.68 0.36 2.36 -1 1 C-0.67 0.67 -0.34 0.34 0 0 Z " fill="#CB5138" transform="translate(746,226)"/>
<path d="M0 0 C0.66 0 1.32 0 2 0 C2.33 0.99 2.66 1.98 3 3 C2.34 3.66 1.68 4.32 1 5 C0.01 5 -0.98 5 -2 5 C-1.125 1.125 -1.125 1.125 0 0 Z " fill="#CC5231" transform="translate(1076,225)"/>
<path d="M0 0 C0.66 1.32 1.32 2.64 2 4 C3.32 4 4.64 4 6 4 C6 4.66 6 5.32 6 6 C5.34 6 4.68 6 4 6 C3.67 6.66 3.34 7.32 3 8 C0 3.375 0 3.375 0 0 Z " fill="#BE5C26" transform="translate(908,220)"/>
<path d="M0 0 C2.475 0.495 2.475 0.495 5 1 C3.68 2.32 2.36 3.64 1 5 C0.67 3.35 0.34 1.7 0 0 Z " fill="#CE5133" transform="translate(1082,218)"/>
<path d="M0 0 C0.66 0 1.32 0 2 0 C1.34 3.3 0.68 6.6 0 10 C-0.33 10 -0.66 10 -1 10 C-2.23076923 4.58461538 -2.23076923 4.58461538 -1.0625 1.625 C-0.5365625 0.820625 -0.5365625 0.820625 0 0 Z " fill="#C25635" transform="translate(860,190)"/>
<path d="M0 0 C0.33 0 0.66 0 1 0 C1 1.65 1 3.3 1 5 C-0.65 5.66 -2.3 6.32 -4 7 C-1.125 1.125 -1.125 1.125 0 0 Z " fill="#D14E2D" transform="translate(749,185)"/>
</svg>
